<?xml version="1.0" standalone="no"?>
<!DOCTYPE svg PUBLIC "-//W3C//DTD SVG 20010904//EN"
 "http://www.w3.org/TR/2001/REC-SVG-20010904/DTD/svg10.dtd">
<svg version="1.0" xmlns="http://www.w3.org/2000/svg"
 width="300.000000pt" height="300.000000pt" viewBox="300 0 300.000000 512.000000"
 preserveAspectRatio="xMidYMid meet">

<g transform="translate(0.000000,512.000000) scale(0.100000,-0.100000)"
fill="#000000" stroke="none">
<path d="M3365 4623 c-75 -55 -194 -180 -246 -258 -260 -391 -293 -884 -114
-1655 78 -333 96 -464 96 -698 0 -212 -18 -343 -73 -512 -27 -84 -104 -250
-150 -322 l-36 -56 -186 187 -186 186 0 -535 0 -535 532 3 532 2 -198 199
c-109 109 -194 201 -188 205 21 13 128 186 183 296 67 135 116 272 152 425 37
155 47 254 47 455 0 256 -25 438 -110 798 -105 449 -126 829 -59 1073 39 143
122 282 220 370 l51 46 -97 182 c-53 99 -102 181 -109 181 -6 0 -33 -17 -61
-37z"/>
<path d="M4645 4623 c-75 -55 -194 -180 -246 -258 -203 -305 -263 -654 -203
-1175 16 -142 39 -263 94 -500 73 -313 90 -446 91 -677 1 -219 -25 -380 -86
-553 -29 -80 -123 -268 -155 -310 l-19 -25 -186 185 -185 185 0 -532 0 -533
530 -2 c292 -2 530 -1 530 2 0 3 -87 93 -194 199 l-195 195 28 35 c84 110 193
315 249 471 39 108 88 310 102 420 15 124 12 417 -5 560 -19 150 -42 272 -90
480 -109 465 -132 845 -64 1091 39 143 122 282 220 370 l51 46 -97 181 c-53
100 -102 182 -108 182 -7 0 -34 -17 -62 -37z"/>
<path d="M5668 4265 l3 -215 319 0 320 0 0 -210 0 -210 -215 0 -215 0 0 -215
0 -215 215 0 215 0 -2 -212 -3 -213 -317 -3 -318 -2 0 -213 0 -212 317 0 318
0 3 -212 2 -213 -215 0 -215 0 0 -215 0 -215 215 0 215 0 0 -210 0 -210 -320
0 -320 0 0 -215 0 -215 533 0 532 0 -3 1920 -2 1920 -533 0 -532 0 3 -215z"/>
</g>
</svg>
